<mxfile host="app.diagrams.net" modified="2024-08-10T17:41:51.296Z" agent="Mozilla/5.0 (X11; Linux x86_64) AppleWebKit/537.36 (KHTML, like Gecko) Chrome/127.0.0.0 Safari/537.36" version="24.7.2" etag="gsmyEx6aPSQzfao_xeqn" type="github">
  <diagram name="PÃ¡gina-1" id="jH_IQHKk76igSYkUQUvV">
    <mxGraphModel>
      <root>
        <mxCell id="0" />
        <mxCell id="1" parent="0" />
      </root>
    </mxGraphModel>
  </diagram>
</mxfile>
